<svg xmlns="http://www.w3.org/2000/svg" xmlns:xlink="http://www.w3.org/1999/xlink" width="31" height="31" viewBox="0 0 31 31"><defs><clipPath id="a"><rect width="31" height="31" fill="#515151"/></clipPath></defs><g transform="translate(-98.503 -50)"><g transform="translate(98.502 50)" clip-path="url(#a)"><path d="M20.12,8.248H10.88a2.678,2.678,0,0,0-2.675,2.675v9.239a2.678,2.678,0,0,0,2.675,2.675H20.12a2.678,2.678,0,0,0,2.675-2.675V10.922A2.678,2.678,0,0,0,20.12,8.248Zm-4.62,12.1a4.8,4.8,0,1,1,4.8-4.8A4.808,4.808,0,0,1,15.5,20.345Zm4.957-8.612A1.136,1.136,0,1,1,21.593,10.6,1.138,1.138,0,0,1,20.457,11.732Z" fill="#fdd34c"/><path d="M15.5,12.769a2.773,2.773,0,1,0,2.773,2.773A2.777,2.777,0,0,0,15.5,12.769Z" fill="#fdd34c"/><path d="M15.5,0A15.5,15.5,0,1,0,31,15.5,15.5,15.5,0,0,0,15.5,0Zm9.324,20.161a4.709,4.709,0,0,1-4.7,4.7H10.88a4.709,4.709,0,0,1-4.7-4.7V10.922a4.709,4.709,0,0,1,4.7-4.7H20.12a4.709,4.709,0,0,1,4.7,4.7Z" fill="#fdd34c"/></g></g></svg>