<svg xmlns="http://www.w3.org/2000/svg" xmlns:xlink="http://www.w3.org/1999/xlink" width="20" height="20" viewBox="0 0 20 20">
  <defs>
    <clipPath id="clip-path">
      <rect id="Rectangle_2" data-name="Rectangle 2" width="20" height="20" transform="translate(151 14)" fill="#fff" stroke="#fff" stroke-width="1.5"/>
    </clipPath>
  </defs>
  <g id="Mask_Group_1" data-name="Mask Group 1" transform="translate(-151 -14)" clip-path="url(#clip-path)">
    <path id="phone-call_1_" data-name="phone-call (1)" d="M12.933,4.492a4.274,4.274,0,0,1,3.3,3.445M12.933,1a7.692,7.692,0,0,1,6.645,6.925m-.836,6.96v2.617A1.78,1.78,0,0,1,18.2,18.8a1.629,1.629,0,0,1-1.281.452,16.105,16.105,0,0,1-7.214-2.678,16.672,16.672,0,0,1-5.015-5.233A17.751,17.751,0,0,1,2.125,3.777a1.793,1.793,0,0,1,.43-1.333,1.641,1.641,0,0,1,1.233-.568H6.3a1.7,1.7,0,0,1,1.672,1.5,11.6,11.6,0,0,0,.585,2.451,1.8,1.8,0,0,1-.376,1.84L7.115,8.775a13.679,13.679,0,0,0,5.015,5.233L13.192,12.9a1.622,1.622,0,0,1,1.764-.393,10.368,10.368,0,0,0,2.349.611,1.724,1.724,0,0,1,1.438,1.771Z" transform="translate(150.152 13.869)" fill="none" stroke="#fff" stroke-linecap="round" stroke-linejoin="round" stroke-width="1.5"/>
  </g>
</svg>
