<svg xmlns="http://www.w3.org/2000/svg" xmlns:xlink="http://www.w3.org/1999/xlink" width="32" height="31" viewBox="0 0 32 31">
  <defs>
    <clipPath id="clip-path">
      <rect id="Rectangle_66" data-name="Rectangle 66" width="32" height="31" transform="translate(307 789)" fill="#fff" stroke="#707070" stroke-width="1"/>
    </clipPath>
  </defs>
  <g id="Group_65" data-name="Group 65" transform="translate(-307 -789)">
    <g id="Mask_Group_25" data-name="Mask Group 25" clip-path="url(#clip-path)">
      <g id="chat" transform="translate(307 788.5)">
        <path id="Path_126" data-name="Path 126" d="M5.333,13.581h6.933a.533.533,0,0,0,0-1.067H5.333a.533.533,0,1,0,0,1.067Z"/>
        <path id="Path_127" data-name="Path 127" d="M19.2,15.715H5.333a.533.533,0,1,0,0,1.067H19.2a.533.533,0,0,0,0-1.067Z"/>
        <path id="Path_128" data-name="Path 128" d="M19.2,18.915H5.333a.533.533,0,0,0,0,1.067H19.2a.533.533,0,0,0,0-1.067Z"/>
        <path id="Path_129" data-name="Path 129" d="M28.838,1.352,10.629,1.315A3.166,3.166,0,0,0,7.467,4.477V7.21l-4.3.009A3.166,3.166,0,0,0,0,10.382V21.657a3.166,3.166,0,0,0,3.163,3.162H6.4v5.333a.533.533,0,0,0,.928.359L12.5,24.818l8.867-.036a3.166,3.166,0,0,0,3.163-3.162v-.06l2.805,3.086a.533.533,0,0,0,.928-.359V18.953h.571A3.166,3.166,0,0,0,32,15.791V4.515A3.166,3.166,0,0,0,28.838,1.352ZM23.467,21.619a2.1,2.1,0,0,1-2.1,2.1l-9.1.037a.534.534,0,0,0-.393.174L7.467,28.773V24.285a.533.533,0,0,0-.533-.533H3.163a2.1,2.1,0,0,1-2.1-2.1V10.381a2.1,2.1,0,0,1,2.1-2.1L8,8.275H8l13.37-.028a2.1,2.1,0,0,1,2.1,2.1V21.619Zm7.467-5.829a2.1,2.1,0,0,1-2.1,2.1h-1.1a.533.533,0,0,0-.533.533v4.487l-2.667-2.933V10.344A3.166,3.166,0,0,0,21.37,7.181L8.533,7.207V4.477a2.1,2.1,0,0,1,2.095-2.1l18.209.037h0a2.1,2.1,0,0,1,2.1,2.1V15.79Z"/>
      </g>
    </g>
  </g>
</svg>
