<svg xmlns="http://www.w3.org/2000/svg" xmlns:xlink="http://www.w3.org/1999/xlink" width="14" height="14" viewBox="0 0 14 14">
  <defs>
    <clipPath id="clip-path">
      <rect id="Rectangle_37" data-name="Rectangle 37" width="14" height="14" transform="translate(174 523)" fill="#fff" stroke="#707070" stroke-width="1"/>
    </clipPath>
  </defs>
  <g id="Mask_Group_1" data-name="Mask Group 1" transform="translate(-174 -523)" clip-path="url(#clip-path)">
    <g id="search" transform="translate(174 523)">
      <path id="Path_31" data-name="Path 31" d="M3.1,8.46,2.615,10.28l-1.781.038A7.012,7.012,0,0,1,.783,3.781h0l1.586.291.695,1.576A4.178,4.178,0,0,0,3.1,8.46Z" fill="#fbbb00"/>
      <path id="Path_32" data-name="Path 32" d="M13.878,5.692a7,7,0,0,1-2.5,6.767h0l-2-.1L9.1,10.592a4.172,4.172,0,0,0,1.8-2.13H7.154V5.692h6.724Z" fill="#518ef8"/>
      <path id="Path_33" data-name="Path 33" d="M11.382,12.458h0A7,7,0,0,1,.834,10.317L3.1,8.46a4.163,4.163,0,0,0,6,2.132Z" fill="#28b446"/>
      <path id="Path_34" data-name="Path 34" d="M11.468,1.612,9.2,3.468a4.163,4.163,0,0,0-6.137,2.18L.783,3.781h0A7,7,0,0,1,11.468,1.612Z" fill="#f14336"/>
    </g>
  </g>
</svg>
