<svg xmlns="http://www.w3.org/2000/svg" xmlns:xlink="http://www.w3.org/1999/xlink" width="24" height="26" viewBox="0 0 24 26">
  <defs>
    <clipPath id="clip-path">
      <rect id="Rectangle_113" data-name="Rectangle 113" width="24" height="26" transform="translate(197 4166)" fill="#9b9b9b"/>
    </clipPath>
  </defs>
  <g id="Mask_Group_22" data-name="Mask Group 22" transform="translate(-197 -4166)" clip-path="url(#clip-path)">
    <path id="twitter" d="M23.618,4.534a9.009,9.009,0,0,1-1.655.6,5.672,5.672,0,0,0,1.362-2.35h0a.278.278,0,0,0-.4-.341h0A9.156,9.156,0,0,1,20.4,3.58a.6.6,0,0,1-.158.021.642.642,0,0,1-.443-.183,4.951,4.951,0,0,0-3.424-1.4,5.142,5.142,0,0,0-1.639.274,5.277,5.277,0,0,0-3.378,3.913,6.465,6.465,0,0,0-.123,2.064.211.211,0,0,1-.047.157.186.186,0,0,1-.143.07h-.018A13.3,13.3,0,0,1,1.7,3.1h0a.259.259,0,0,0-.443.038h0a5.963,5.963,0,0,0-.7,2.818,5.84,5.84,0,0,0,1.542,4A4.429,4.429,0,0,1,.92,9.455h0a.271.271,0,0,0-.4.253h0A5.662,5.662,0,0,0,3.54,14.878H3.43a4.309,4.309,0,0,1-.872-.09h0a.285.285,0,0,0-.308.377h0a5.332,5.332,0,0,0,4.1,3.821A9.035,9.035,0,0,1,1,20.747H.4a.4.4,0,0,0-.387.324.459.459,0,0,0,.2.491,13.374,13.374,0,0,0,7.136,2.084,13.465,13.465,0,0,0,6.1-1.4,13.617,13.617,0,0,0,4.462-3.622,16.2,16.2,0,0,0,2.732-4.957,16.822,16.822,0,0,0,.929-5.426V8.154a.986.986,0,0,1,.329-.742,10.813,10.813,0,0,0,2.057-2.446h0c.151-.244-.087-.55-.335-.431Z" transform="translate(197 4166.168)" fill="#76a9ea"/>
  </g>
</svg>
