<svg xmlns="http://www.w3.org/2000/svg" xmlns:xlink="http://www.w3.org/1999/xlink" width="24" height="24" viewBox="0 0 24 24">
  <defs>
    <clipPath id="clip-path">
      <rect id="Rectangle_102" data-name="Rectangle 102" width="24" height="24" transform="translate(976 288)"/>
    </clipPath>
  </defs>
  <g id="Mask_Group_19" data-name="Mask Group 19" transform="translate(-976 -288)" clip-path="url(#clip-path)">
    <g id="followers" transform="translate(976 288)">
      <g id="Group_83" data-name="Group 83">
        <g id="Group_82" data-name="Group 82">
          <path id="Path_63" data-name="Path 63" d="M18.42,9.356A5.284,5.284,0,1,0,9.882,6.4a5.285,5.285,0,0,0-4.3,9.274A8.969,8.969,0,0,0,0,23.968H1.875a7.088,7.088,0,0,1,7.08-7.08,5.287,5.287,0,0,0,5.168-6.4,5.3,5.3,0,0,0,.927.081,7.072,7.072,0,0,1,5.641,2.809l1.271-1.415A9,9,0,0,0,18.42,9.356ZM8.955,15.013A3.411,3.411,0,1,1,12.366,11.6,3.415,3.415,0,0,1,8.955,15.013ZM15.05,8.7a3.411,3.411,0,1,1,3.411-3.411A3.415,3.415,0,0,1,15.05,8.7Z"/>
        </g>
      </g>
      <g id="Group_85" data-name="Group 85">
        <g id="Group_84" data-name="Group 84">
          <path id="Path_64" data-name="Path 64" d="M22.6,14.058,16.091,21.31l-3.676-3.5L11.122,19.17,16.2,24,24,15.311Z"/>
        </g>
      </g>
    </g>
  </g>
</svg>
