<svg height="376pt" viewBox="-1 0 376 376" width="376pt" xmlns="http://www.w3.org/2000/svg"><path d="m364.273438 0h-354.539063c-5.453125.078125-9.8085938 4.5625-9.73046875 10.015625v355.867187c-.13671825 5.453126 4.17578175 9.984376 9.62890575 10.117188h267.851563c2.722656-.023438 5.320313-1.148438 7.199219-3.117188l86.652344-90.042968c1.761718-1.890625 2.71875-4.390625 2.667968-6.972656v-265.75c.136719-5.453126-4.175781-9.984376-9.628906-10.117188zm-344.269532 20h334v246h-76.519531c-5.523437 0-10.480469 4.34375-10.480469 9.867188v80.132812h-247zm320.734375 266-53.734375 55.101562v-55.101562zm0 0"/><path d="m71.324219 175h225.199219c5.523437 0 10-4.476562 10-10s-4.476563-10-10-10h-225.199219c-5.523438 0-10 4.476562-10 10s4.476562 10 10 10zm0 0"/><path d="m71.324219 111h132.816406c5.519531 0 10-4.476562 10-10s-4.480469-10-10-10h-132.816406c-5.523438 0-10 4.476562-10 10s4.476562 10 10 10zm0 0"/><path d="m296.523438 237c5.523437 0 10-4.476562 10-10s-4.476563-10-10-10h-225.199219c-5.523438 0-10 4.476562-10 10s4.476562 10 10 10zm0 0"/></svg>